------------------------------:TPB IS BENEDICTION TO ME :--------------------------


Screen Link :---
 
http://www.desiupload.com/show.php/872900_ColorClimaxTheBestCumshotsOfThe70sthumb.jpg.html


General Info :---


Format                           : AVI
Format/Info                      : Audio Video Interleave
File size                        : 149 MiB
Duration                         : 20mn 3s
Overall bit rate                 : 1 040 Kbps
Writing application              : MEncoder dev-SVN-rUNKNOWN-4.1.1
Writing library                  : MPlayer
Comment                          : Joined with EO VideoNew value: %d... / 

Video
ID                               : 0
Format                           : MPEG-4 Visual
Format profile                   : Advanced Simple@L5
Format settings, BVOP            : 2
Format settings, QPel            : No
Format settings, GMC             : No warppoints
Format settings, Matrix          : Default (H.263)
Codec ID                         : XVID
Codec ID/Hint                    : XviD
Duration                         : 20mn 3s
Bit rate                         : 942 Kbps
Width                            : 352 pixels
Height                           : 288 pixels
Display aspect ratio             : 4:3
Frame rate                       : 25.000 fps
Standard                         : PAL
Color space                      : YUV
Chroma subsampling               : 4:2:0
Bit depth                        : 8 bits
Scan type                        : Progressive
Compression mode                 : Lossy
Bits/(Pixel*Frame)               : 0.372
Stream size                      : 135 MiB (91%)
Writing library                  : XviD 1.1.2 (UTC 2006-11-01)

Audio
ID                               : 1
Format                           : MPEG Audio
Format version                   : Version 1
Format profile                   : Layer 3
Mode                             : Joint stereo
Mode extension                   : MS Stereo
Codec ID                         : 55
Codec ID/Hint                    : MP3
Duration                         : 20mn 2s
Bit rate mode                    : Variable
Bit rate                         : 87.4 Kbps
Channel(s)                       : 2 channels
Sampling rate                    : 44.1 KHz
Compression mode                 : Lossy
Stream size                      : 12.3 MiB (8%)
Alignment                        : Aligned on interleaves
Interleave, duration             : 26 ms (0.65 video frame)
Interleave, preload duration     : 510 ms



------------------------------:TPB IS BENEDICTION TO ME :--------------------------



		